<svg xmlns="http://www.w3.org/2000/svg" width="89" height="83" viewBox="0 0 89 83">
    <g fill="none" fill-rule="evenodd" transform="translate(1 1)">
        <ellipse cx="43.412" cy="40.5" stroke="#9B9B9B" stroke-width="2" rx="43.191" ry="40.5"/>
        <path fill="#ABABAB" d="M53.69 54.559l1.213.674c.809.449 1.213 1.033 1.213 1.752v3.639c0 .689-.24 1.265-.718 1.73a2.37 2.37 0 0 1-1.708.696H22.6a2.37 2.37 0 0 1-1.706-.696c-.48-.465-.72-1.041-.72-1.73v-3.64c0-.658.405-1.227 1.214-1.706l1.213-.72 9.3-5.031c-1.707-1.348-2.89-3.145-3.55-5.391-.658-2.247-.988-4.029-.988-5.346v-6.066c0-1.018.315-2.029.944-3.032.629-1.004 1.452-1.91 2.47-2.718a13.398 13.398 0 0 1 3.482-1.977 10.726 10.726 0 0 1 3.932-.764c1.347 0 2.665.255 3.953.764a13.122 13.122 0 0 1 3.437 1.977c1.003.808 1.812 1.714 2.426 2.718.614 1.003.921 2.014.921 3.032v6.066c0 1.467-.292 3.294-.876 5.48-.584 2.187-1.715 3.954-3.392 5.302l9.03 4.987zm-.449 5.616v-2.561a1.2 1.2 0 0 0-.314-.225l-.36-.18a.218.218 0 0 1-.112-.044 1.469 1.469 0 0 0-.157-.09l-9.03-4.987a3.038 3.038 0 0 1-1.034-.966 2.648 2.648 0 0 1-.45-1.325c-.06-.48.008-.944.203-1.393a2.8 2.8 0 0 1 .876-1.123c1.228-.959 2.067-2.329 2.516-4.111.45-1.782.674-3.242.674-4.38v-6.066c0-1.048-.786-2.246-2.359-3.594-1.572-1.348-3.407-2.021-5.503-2.021-2.037 0-3.872.673-5.504 2.021-1.632 1.348-2.448 2.546-2.448 3.594v6.066c0 1.138.27 2.598.808 4.38.54 1.782 1.423 3.152 2.65 4.11.36.3.637.675.832 1.124.195.45.262.913.202 1.393-.03.479-.18.92-.45 1.325-.269.404-.613.711-1.032.92l-9.3 5.078a.2.2 0 0 0-.09.022.352.352 0 0 0-.09.068c-.12.03-.247.09-.382.18l-.337.224v2.56h30.191zm10.513-12.76l1.213.674c.809.45 1.213 1.034 1.213 1.753v3.594c0 .689-.24 1.265-.719 1.73a2.37 2.37 0 0 1-1.707.696h-4.762a16.475 16.475 0 0 0-.562-1.663 2.92 2.92 0 0 0-.92-1.213h5.795v-2.56c-.09-.06-.195-.128-.315-.203a1.253 1.253 0 0 0-.36-.157.282.282 0 0 0-.112-.067 1.233 1.233 0 0 1-.157-.068l-9.165-4.987a3.038 3.038 0 0 1-1.033-.965 2.648 2.648 0 0 1-.45-1.326c-.06-.479.008-.943.203-1.393a2.8 2.8 0 0 1 .876-1.123c1.228-.988 2.089-2.373 2.583-4.155.494-1.783.741-3.228.741-4.336v-6.065c0-1.078-.808-2.291-2.426-3.639-1.617-1.348-3.474-2.022-5.57-2.022-1.019 0-2 .165-2.943.494-.944.33-1.79.78-2.539 1.348a7.057 7.057 0 0 0-1.797-.314L39 21.358c1.049-1.228 2.396-2.261 4.044-3.1C44.69 17.419 46.383 17 48.119 17c1.348 0 2.674.262 3.976.786a13.9 13.9 0 0 1 3.482 2c1.019.808 1.842 1.722 2.471 2.74.63 1.018.944 2.037.944 3.055v6.065c0 1.438-.315 3.257-.944 5.459-.629 2.201-1.782 3.96-3.46 5.279l9.166 5.031z"/>
    </g>
</svg>
