<svg xmlns="http://www.w3.org/2000/svg" width="90" height="83" viewBox="0 0 90 83">
    <g fill="none" fill-rule="evenodd" transform="translate(.913 1)">
        <ellipse cx="43.988" cy="40.5" stroke="#9B9B9B" stroke-width="2" rx="43.191" ry="40.5"/>
        <path fill="#B9B9B9" d="M61.237 24.75c.703 0 1.295.24 1.777.723.482.481.723 1.074.723 1.777V58.5c0 .677-.241 1.263-.723 1.758a2.384 2.384 0 0 1-1.777.742h-35a2.384 2.384 0 0 1-1.778-.742 2.435 2.435 0 0 1-.722-1.758V27.25c0-.703.24-1.296.722-1.777.482-.482 1.075-.723 1.778-.723h10v-2.5c0-.339.124-.632.37-.879.248-.247.541-.371.88-.371.338 0 .631.124.879.371.247.247.37.54.37.879v2.5h10v-2.5c0-.339.125-.632.372-.879s.54-.371.879-.371c.338 0 .631.124.879.371.247.247.37.54.37.879v2.5h10zm0 33.75V27.25h-10v1.25c0 .339-.124.632-.371.879-.248.247-.54.371-.88.371-.338 0-.63-.124-.878-.371a1.201 1.201 0 0 1-.371-.879v-1.25h-10v1.25c0 .339-.124.632-.371.879-.248.247-.54.371-.88.371-.338 0-.63-.124-.878-.371a1.201 1.201 0 0 1-.371-.879v-1.25h-10V58.5h35zM52.487 41c-.339 0-.632-.124-.88-.371a1.201 1.201 0 0 1-.37-.879v-2.5c0-.339.124-.632.37-.879.248-.247.541-.371.88-.371h2.5c.338 0 .631.124.879.371.247.247.37.54.37.879v2.5c0 .339-.123.632-.37.879-.248.247-.54.371-.88.371h-2.5zm0 10c-.339 0-.632-.124-.88-.371a1.201 1.201 0 0 1-.37-.879v-2.5c0-.339.124-.632.37-.879.248-.247.541-.371.88-.371h2.5c.338 0 .631.124.879.371.247.247.37.54.37.879v2.5c0 .339-.123.632-.37.879-.248.247-.54.371-.88.371h-2.5zm-7.5-5c.338 0 .631.124.879.371.247.247.37.54.37.879v2.5c0 .339-.123.632-.37.879-.248.247-.54.371-.88.371h-2.5c-.338 0-.63-.124-.878-.371a1.201 1.201 0 0 1-.371-.879v-2.5c0-.339.124-.632.37-.879.248-.247.541-.371.88-.371h2.5zm0-10c.338 0 .631.124.879.371.247.247.37.54.37.879v2.5c0 .339-.123.632-.37.879-.248.247-.54.371-.88.371h-2.5c-.338 0-.63-.124-.878-.371a1.201 1.201 0 0 1-.371-.879v-2.5c0-.339.124-.632.37-.879.248-.247.541-.371.88-.371h2.5zm-10 0c.338 0 .631.124.879.371.247.247.37.54.37.879v2.5c0 .339-.123.632-.37.879-.248.247-.54.371-.88.371h-2.5c-.338 0-.63-.124-.878-.371a1.201 1.201 0 0 1-.371-.879v-2.5c0-.339.124-.632.37-.879.248-.247.541-.371.88-.371h2.5zm0 10c.338 0 .631.124.879.371.247.247.37.54.37.879v2.5c0 .339-.123.632-.37.879-.248.247-.54.371-.88.371h-2.5c-.338 0-.63-.124-.878-.371a1.201 1.201 0 0 1-.371-.879v-2.5c0-.339.124-.632.37-.879.248-.247.541-.371.88-.371h2.5z"/>
    </g>
</svg>
