<svg xmlns="http://www.w3.org/2000/svg" width="89" height="83" viewBox="0 0 89 83">
    <g fill="none" fill-rule="evenodd" transform="translate(1 1)">
        <ellipse cx="43.816" cy="40.5" stroke="#9B9B9B" stroke-width="2" rx="43.191" ry="40.5"/>
        <path fill="#9B9B9B" d="M59.787 18c1.278 0 2.364.42 3.258 1.258.894.838 1.341 1.857 1.341 3.055v37.374c0 1.198-.447 2.217-1.341 3.055-.894.839-1.98 1.258-3.258 1.258H29.175c-.575 0-1.238-.18-1.988-.54-.75-.358-1.126-1.137-1.126-2.335V55.33H24.48c-.383 0-.727-.142-1.03-.427-.303-.284-.455-.621-.455-1.01 0-.39.152-.72.455-.989a1.51 1.51 0 0 1 1.03-.404h1.581v-5.75H24.48c-.383 0-.727-.142-1.03-.427-.303-.284-.455-.621-.455-1.01 0-.39.152-.72.455-.989a1.51 1.51 0 0 1 1.03-.404h1.581v-5.84h-1.533c-.415 0-.767-.135-1.054-.404a1.303 1.303 0 0 1-.431-.989c0-.389.144-.718.431-.988.287-.27.639-.404 1.054-.404h1.533V29.5h-1.677c-.415 0-.766-.135-1.054-.404a1.303 1.303 0 0 1-.43-.989c0-.389.143-.726.43-1.01a1.441 1.441 0 0 1 1.054-.427h1.677v-5.705c0-.719.255-1.393.766-2.022.511-.629 1.31-.943 2.396-.943h30.564zm-30.66 43.125h24.528v-40.25H29.127v5.795h1.485c.415 0 .767.142 1.054.427.287.284.431.621.431 1.01 0 .39-.144.72-.431.989-.287.27-.639.404-1.054.404h-1.485v5.795h1.629c.415 0 .766.135 1.054.404.287.27.43.6.43.989s-.143.718-.43.988c-.288.27-.639.404-1.054.404h-1.629v5.84h1.58c.416 0 .775.135 1.079.404.303.27.455.6.455.989s-.152.726-.455 1.01a1.523 1.523 0 0 1-1.078.427h-1.581v5.75h1.58c.416 0 .775.135 1.079.404.303.27.455.6.455.989s-.152.726-.455 1.01a1.523 1.523 0 0 1-1.078.427h-1.581v5.795zm32.193-1.438V22.313c0-.39-.151-.727-.455-1.011a1.523 1.523 0 0 0-1.078-.427h-3.066v40.25h3.066c.415 0 .775-.142 1.078-.427.304-.284.455-.621.455-1.01z"/>
    </g>
</svg>
