<svg xmlns="http://www.w3.org/2000/svg" width="89" height="83" viewBox="0 0 89 83">
    <g fill="none" fill-rule="evenodd" transform="translate(1 1)">
        <ellipse cx="43.701" cy="40.5" stroke="#9B9B9B" stroke-width="2" rx="43.191" ry="40.5"/>
        <path fill="#9B9B9B" d="M44.31 18c3.385 0 6.57.599 9.557 1.797 2.986 1.198 5.589 2.837 7.809 4.919a23.054 23.054 0 0 1 5.245 7.322c1.278 2.8 1.917 5.788 1.917 8.962 0 3.174-.64 6.162-1.917 8.962a23.054 23.054 0 0 1-5.245 7.322c-2.22 2.082-4.823 3.721-7.81 4.92C50.882 63.4 47.696 64 44.31 64c-3.385 0-6.57-.599-9.557-1.797-2.986-1.198-5.59-2.837-7.809-4.919a23.054 23.054 0 0 1-5.246-7.322c-1.277-2.8-1.916-5.788-1.916-8.962 0-3.174.639-6.162 1.916-8.962a23.054 23.054 0 0 1 5.246-7.322c2.22-2.082 4.823-3.721 7.809-4.92C37.738 18.6 40.924 18 44.309 18zm0 43.17c2.97 0 5.756-.532 8.36-1.595 2.602-1.063 4.87-2.508 6.802-4.335a20.761 20.761 0 0 0 4.599-6.401c1.134-2.44 1.7-5.054 1.7-7.839s-.566-5.398-1.7-7.839a20.49 20.49 0 0 0-4.6-6.379c-1.931-1.812-4.199-3.25-6.802-4.312-2.603-1.063-5.39-1.595-8.36-1.595-2.97 0-5.756.532-8.36 1.595-2.602 1.063-4.87 2.5-6.802 4.312a20.49 20.49 0 0 0-4.6 6.38c-1.133 2.44-1.7 5.053-1.7 7.838s.567 5.398 1.7 7.839a20.761 20.761 0 0 0 4.6 6.401c1.932 1.827 4.2 3.272 6.803 4.335 2.603 1.063 5.39 1.595 8.36 1.595zm8.67-28.3c.288.269.432.606.432 1.01s-.144.741-.432 1.01L46.465 41l6.515 6.11c.288.269.432.606.432 1.01s-.144.741-.432 1.01c-.287.27-.646.405-1.077.405-.432 0-.79-.135-1.078-.404l-6.516-6.11-6.515 6.11c-.287.27-.647.404-1.078.404-.431 0-.79-.135-1.078-.404a1.328 1.328 0 0 1-.43-1.01c0-.405.143-.742.43-1.012L42.154 41l-6.516-6.11a1.328 1.328 0 0 1-.43-1.01c0-.404.143-.741.43-1.01.288-.27.647-.405 1.078-.405.431 0 .79.135 1.078.404l6.515 6.11 6.516-6.11c.287-.27.646-.404 1.078-.404.43 0 .79.135 1.077.404z"/>
    </g>
</svg>
