<svg xmlns="http://www.w3.org/2000/svg" width="89" height="83" viewBox="0 0 89 83">
    <g fill="none" fill-rule="evenodd" transform="translate(1 1)">
        <ellipse cx="43.495" cy="40.5" stroke="#9B9B9B" stroke-width="2" rx="43.191" ry="40.5"/>
        <path fill="#ABABAB" d="M66.182 55.61c.15.239.21.501.18.786-.03.284-.135.546-.315.786-.15.21-.359.367-.628.471-.27.105-.54.113-.809.023l-7.232-1.617-2.471 6.873c-.09.27-.247.486-.472.651a1.518 1.518 0 0 1-.741.292h-.135c-.27 0-.516-.067-.741-.202a1.338 1.338 0 0 1-.517-.562l-7.502-13.7a12.63 12.63 0 0 1-1.482.09 14.574 14.574 0 0 1-1.617-.09l-7.367 13.7c-.12.24-.292.427-.517.562a1.414 1.414 0 0 1-.741.202h-.09c-.3-.03-.562-.127-.786-.292a1.295 1.295 0 0 1-.472-.651l-2.47-6.873-7.233 1.617c-.27.09-.539.082-.809-.023a1.26 1.26 0 0 1-.628-.516 1.324 1.324 0 0 1-.315-.741c-.03-.285.03-.547.18-.787l8.445-15.408a15.584 15.584 0 0 1-1.033-3.122 15.797 15.797 0 0 1-.36-3.392c0-2.186.412-4.237 1.236-6.154a15.941 15.941 0 0 1 3.391-5.031 15.941 15.941 0 0 1 5.032-3.392c1.916-.823 3.968-1.235 6.154-1.235s4.238.412 6.154 1.235a15.676 15.676 0 0 1 5.01 3.392 16.457 16.457 0 0 1 3.39 5.031c.84 1.917 1.258 3.968 1.258 6.154 0 1.139-.12 2.24-.359 3.302a17.986 17.986 0 0 1-.988 3.077l8.4 15.543zm-32.838 3.279l5.391-10.063a15.98 15.98 0 0 1-4.56-2.246 15.562 15.562 0 0 1-3.57-3.504l-6.11 11.096 5.345-1.213a1.32 1.32 0 0 1 1.011.135c.315.18.547.434.696.763l1.797 5.032zM30.38 33.687c0 1.767.337 3.437 1.011 5.01a12.797 12.797 0 0 0 2.785 4.11 13.658 13.658 0 0 0 4.11 2.785c1.558.689 3.235 1.033 5.032 1.033 1.767 0 3.436-.344 5.009-1.033a13.296 13.296 0 0 0 4.11-2.785 12.98 12.98 0 0 0 2.763-4.11 12.58 12.58 0 0 0 1.01-5.01 12.58 12.58 0 0 0-1.01-5.008 12.98 12.98 0 0 0-2.763-4.11 13.296 13.296 0 0 0-4.11-2.786 12.345 12.345 0 0 0-5.009-1.033c-1.797 0-3.474.344-5.031 1.033a13.658 13.658 0 0 0-4.11 2.785 12.797 12.797 0 0 0-2.786 4.11 12.58 12.58 0 0 0-1.01 5.01zM56.794 52.96l5.345 1.213-6.064-11.186a16.357 16.357 0 0 1-3.661 3.594 15.84 15.84 0 0 1-4.65 2.291l5.526 10.063 1.797-5.077c.15-.329.381-.584.696-.763a1.32 1.32 0 0 1 1.01-.135z"/>
    </g>
</svg>
