<svg xmlns="http://www.w3.org/2000/svg" xmlns:xlink="http://www.w3.org/1999/xlink" width="118" height="140" viewBox="0 0 118 140">
    <defs>
        <path id="a" d="M0 0h126v117H0z"/>
        <ellipse id="b" cx="44.988" cy="40.958" rx="71.988" ry="68.958"/>
        <path id="c" d="M65.196 72.473l2.44 1.355c1.626.904 2.439 2.078 2.439 3.524v7.318c0 1.385-.482 2.544-1.446 3.478-.963.934-2.108 1.4-3.433 1.4H2.678c-1.325 0-2.47-.466-3.433-1.4-.964-.934-1.446-2.093-1.446-3.478v-7.318c0-1.325.813-2.47 2.44-3.433l2.439-1.446 18.701-10.118c-3.433-2.71-5.812-6.325-7.137-10.842-1.325-4.517-1.988-8.1-1.988-10.75V28.565c0-2.048.633-4.081 1.897-6.099 1.265-2.017 2.922-3.84 4.97-5.466 2.047-1.626 4.381-2.95 7.001-3.975 2.62-1.024 5.255-1.536 7.905-1.536 2.71 0 5.36.512 7.95 1.536s4.894 2.35 6.912 3.975c2.018 1.627 3.644 3.449 4.879 5.466 1.234 2.018 1.852 4.05 1.852 6.099v12.196c0 2.951-.587 6.625-1.762 11.022-1.174 4.397-3.448 7.95-6.821 10.66l18.16 10.03zm-.903 11.293v-5.15a2.412 2.412 0 0 0-.633-.451l-.722-.361a.44.44 0 0 1-.226-.09c-.09-.061-.196-.121-.316-.181l-18.16-10.029a6.109 6.109 0 0 1-2.078-1.942 5.325 5.325 0 0 1-.903-2.665 5.277 5.277 0 0 1 .406-2.801 5.63 5.63 0 0 1 1.762-2.259c2.47-1.927 4.156-4.683 5.06-8.266.903-3.584 1.355-6.52 1.355-8.809V28.566c0-2.109-1.581-4.518-4.743-7.228-3.162-2.71-6.852-4.066-11.068-4.066-4.095 0-7.784 1.356-11.067 4.066-3.282 2.71-4.924 5.12-4.924 7.228v12.196c0 2.289.542 5.225 1.626 8.809 1.085 3.583 2.861 6.339 5.33 8.266a5.99 5.99 0 0 1 1.672 2.259c.392.903.527 1.837.407 2.8a5.325 5.325 0 0 1-.904 2.666 5.334 5.334 0 0 1-2.078 1.852L5.388 77.623a.4.4 0 0 0-.18.045.708.708 0 0 0-.181.136c-.241.06-.497.18-.768.36l-.678.453v5.15h60.712zm21.14-25.658l2.44 1.356c1.626.903 2.44 2.077 2.44 3.523v7.228c0 1.385-.483 2.544-1.446 3.478-.964.933-2.108 1.4-3.433 1.4h-9.577a33.13 33.13 0 0 0-1.13-3.343 5.871 5.871 0 0 0-1.851-2.439H84.53v-5.15c-.18-.12-.391-.256-.632-.406a2.519 2.519 0 0 0-.723-.316.567.567 0 0 0-.226-.136 2.479 2.479 0 0 1-.316-.135l-18.43-10.029a6.109 6.109 0 0 1-2.078-1.942 5.325 5.325 0 0 1-.904-2.665 5.277 5.277 0 0 1 .407-2.8 5.63 5.63 0 0 1 1.761-2.26c2.47-1.987 4.201-4.773 5.195-8.356.994-3.584 1.491-6.49 1.491-8.719V14.201c0-2.169-1.626-4.608-4.879-7.318-3.252-2.71-6.986-4.066-11.202-4.066-2.048 0-4.02.331-5.918.994-1.897.663-3.599 1.566-5.105 2.71a14.192 14.192 0 0 0-3.613-.632c-1.265-.06-2.5-.12-3.704-.18 2.108-2.47 4.818-4.548 8.13-6.235 3.313-1.686 6.716-2.53 10.21-2.53 2.71 0 5.375.528 7.995 1.582s4.954 2.394 7.002 4.02c2.048 1.626 3.704 3.463 4.969 5.511 1.265 2.048 1.897 4.096 1.897 6.144v12.196c0 2.891-.632 6.55-1.897 10.977-1.265 4.427-3.584 7.966-6.957 10.616l18.43 10.118z"/>
    </defs>
    <g fill="none" fill-rule="evenodd" opacity=".321" transform="translate(0 29)">
        <use stroke="#889DFF" stroke-width="2" opacity=".498" xlink:href="#b"/>
        <use fill="#889DFF" fill-opacity=".579" xlink:href="#c"/>
    </g>
</svg>
