<svg xmlns="http://www.w3.org/2000/svg" width="20" height="21" viewBox="0 0 20 21">
    <path fill="#102448" fill-rule="evenodd" d="M18.594.29c.364-.105.69-.047.976.175.287.221.43.514.43.879v15.195c0 .313-.104.602-.313.87-.208.266-.462.439-.761.517l-8.262 2.246c-.13.039-.264.065-.4.078-.137.013-.257.02-.362.02-.143 0-.283-.01-.42-.03a3.61 3.61 0 0 1-.36-.068l-8.048-2.227c-.3-.09-.553-.27-.762-.537A1.384 1.384 0 0 1 0 16.54V1.344C0 .979.143.686.43.464c.286-.22.612-.28.976-.175l8.047 2.227c.104.026.25.039.44.039.188 0 .335-.013.439-.04L18.594.29zM9.375 18.94V3.766a.464.464 0 0 1-.127-.02.464.464 0 0 0-.127-.02L1.25 1.54v15c0 .04.016.078.049.117.032.04.062.065.088.078l7.988 2.207zm9.375-2.402v-15l-8.086 2.188h-.039v15.156l7.969-2.149a.419.419 0 0 0 .097-.078c.04-.039.059-.078.059-.117zM12.54 7.4a.658.658 0 0 1-.372-.118.562.562 0 0 1-.234-.332.645.645 0 0 1 .068-.478.635.635 0 0 1 .361-.303l4.375-1.23a.645.645 0 0 1 .479.068c.15.084.25.211.303.38.039.157.016.31-.069.46a.635.635 0 0 1-.361.302l-4.375 1.23a.194.194 0 0 1-.088.02h-.088zm0 3.75a.658.658 0 0 1-.372-.118.562.562 0 0 1-.234-.332.645.645 0 0 1 .068-.478.635.635 0 0 1 .361-.303l4.375-1.23a.645.645 0 0 1 .479.068c.15.084.25.211.303.38.039.157.016.31-.069.46a.635.635 0 0 1-.361.302l-4.375 1.23a.194.194 0 0 1-.088.02h-.088zm0 3.75a.658.658 0 0 1-.372-.118.562.562 0 0 1-.234-.332.645.645 0 0 1 .068-.478.635.635 0 0 1 .361-.303l4.375-1.23a.645.645 0 0 1 .479.068c.15.084.25.211.303.38.039.157.016.31-.069.46a.635.635 0 0 1-.361.302l-4.375 1.23a.194.194 0 0 1-.088.02h-.088zM7.714 6.167a.635.635 0 0 1 .361.303c.085.15.108.309.069.478a.562.562 0 0 1-.235.332.658.658 0 0 1-.37.117H7.45a.194.194 0 0 1-.088-.02l-4.375-1.23a.635.635 0 0 1-.361-.302.605.605 0 0 1-.068-.46.635.635 0 0 1 .302-.38.645.645 0 0 1 .479-.069l4.375 1.231zm0 3.75a.635.635 0 0 1 .361.303c.085.15.108.309.069.478a.562.562 0 0 1-.235.332.658.658 0 0 1-.37.117H7.45a.194.194 0 0 1-.088-.02l-4.375-1.23a.635.635 0 0 1-.361-.302.605.605 0 0 1-.068-.46.635.635 0 0 1 .302-.38.645.645 0 0 1 .479-.069l4.375 1.231zm0 3.75a.635.635 0 0 1 .361.303c.085.15.108.309.069.478a.562.562 0 0 1-.235.332.658.658 0 0 1-.37.117H7.45a.194.194 0 0 1-.088-.02l-4.375-1.23a.635.635 0 0 1-.361-.302.605.605 0 0 1-.068-.46.635.635 0 0 1 .302-.38.645.645 0 0 1 .479-.069l4.375 1.231z"/>
</svg>
