<svg xmlns="http://www.w3.org/2000/svg" xmlns:xlink="http://www.w3.org/1999/xlink" width="124" height="140" viewBox="0 0 124 140">
    <defs>
        <path id="a" d="M.204.882H125V117H.204z"/>
        <path id="b" d="M82.101-2.777c2.479 0 4.586.83 6.32 2.493 1.736 1.662 2.603 3.68 2.603 6.054v74.082c0 2.374-.867 4.392-2.602 6.054-1.735 1.663-3.842 2.494-6.32 2.494H22.704c-1.116 0-2.401-.357-3.858-1.069-1.456-.712-2.184-2.256-2.184-4.63V71.215h-3.067c-.744 0-1.41-.282-1.999-.846-.589-.564-.883-1.232-.883-2.003 0-.772.294-1.425.883-1.96.589-.534 1.255-.8 1.999-.8h3.067V54.207h-3.067c-.744 0-1.41-.282-1.999-.846-.589-.564-.883-1.231-.883-2.003s.294-1.425.883-1.959 1.255-.801 1.999-.801h3.067V37.023h-2.974c-.806 0-1.488-.267-2.045-.8a2.609 2.609 0 0 1-.837-1.96c0-.771.279-1.424.837-1.959.557-.534 1.239-.801 2.045-.801h2.974V20.017H13.41c-.806 0-1.488-.267-2.045-.802a2.609 2.609 0 0 1-.837-1.958c0-.772.279-1.44.837-2.004.557-.564 1.24-.846 2.045-.846h3.253V3.1c0-1.424.496-2.76 1.487-4.007.992-1.246 2.54-1.87 4.648-1.87H82.1zM22.611 82.7h47.592V2.921H22.612v11.486h2.881c.806 0 1.488.282 2.045.846.558.564.837 1.232.837 2.004 0 .771-.279 1.424-.837 1.958-.557.535-1.239.802-2.045.802h-2.881v11.486h3.16c.806 0 1.488.267 2.045.801.558.535.837 1.188.837 1.96 0 .77-.28 1.424-.837 1.958-.557.534-1.24.801-2.045.801h-3.16V48.6h3.067c.806 0 1.503.267 2.092.801.588.534.883 1.187.883 1.959s-.295 1.44-.883 2.003a2.922 2.922 0 0 1-2.092.846h-3.067v11.397h3.067c.806 0 1.503.267 2.092.802.588.534.883 1.187.883 1.959 0 .771-.295 1.439-.883 2.003a2.922 2.922 0 0 1-2.092.846h-3.067V82.7zm62.465-2.85V5.772c0-.772-.295-1.44-.884-2.004a2.922 2.922 0 0 0-2.09-.846h-5.95v79.78h5.95c.805 0 1.502-.282 2.09-.846.59-.564.884-1.232.884-2.003z"/>
        <ellipse id="c" cx="50.988" cy="40.958" rx="71.988" ry="68.958"/>
    </defs>
    <g fill="none" fill-rule="evenodd" opacity=".321" transform="translate(0 29)">
        <use fill="#BE3C31" opacity=".498" xlink:href="#b"/>
        <use stroke="#BE3C31" stroke-width="2" opacity=".498" xlink:href="#c"/>
    </g>
</svg>
