<svg xmlns="http://www.w3.org/2000/svg" width="20" height="17" viewBox="0 0 20 17">
    <path fill="#102448" fill-rule="evenodd" d="M19.355 11.844c.183.117.332.27.45.459.117.189.175.4.175.634 0 .339-.12.632-.36.88-.242.247-.538.37-.89.37-.351 0-.647-.123-.888-.37a1.217 1.217 0 0 1-.362-.88c0-.234.06-.445.176-.634.117-.19.267-.342.45-.46V7.47l-2.54 1.328c.026.039.043.081.05.127.006.045.009.088.009.127v5.43c0 .09-.02.179-.059.263a.488.488 0 0 1-.175.205c-.065.065-.492.267-1.28.606-.787.338-2.17.508-4.15.508-1.98 0-3.356-.18-4.13-.538-.776-.358-1.196-.57-1.26-.634a.426.426 0 0 1-.167-.205.728.728 0 0 1-.049-.264V9.129c0-.052.007-.104.02-.156a.434.434 0 0 1 .059-.137L.332 6.648a.582.582 0 0 1-.244-.224A.615.615 0 0 1 0 6.102c0-.118.03-.225.088-.323a.619.619 0 0 1 .225-.224L9.668.515a.6.6 0 0 1 .303-.078.6.6 0 0 1 .302.079l9.415 5.02a.806.806 0 0 1 .224.243.615.615 0 0 1 0 .635.565.565 0 0 1-.244.234l-.313.157v5.039zm-4.98 2.265V9.441l-4.121 2.168a.857.857 0 0 1-.147.059.531.531 0 0 1-.146.02.642.642 0 0 1-.156-.02.434.434 0 0 1-.137-.059L5.605 9.461v4.629c.222.117.674.267 1.358.45.683.181 1.683.273 2.998.273 1.315 0 2.318-.088 3.008-.264.69-.176 1.159-.322 1.406-.44zm-4.414-3.75l8.086-4.277L9.98 1.766 1.914 6.082l8.047 4.277z"/>
</svg>
