<svg xmlns="http://www.w3.org/2000/svg" width="20" height="21" viewBox="0 0 20 21">
    <path fill="#000" fill-rule="evenodd" d="M10 .25c1.38 0 2.679.26 3.896.781A10.035 10.035 0 0 1 17.08 3.17a10.035 10.035 0 0 1 2.139 3.184A9.801 9.801 0 0 1 20 10.25c0 1.38-.26 2.679-.781 3.896a10.035 10.035 0 0 1-2.139 3.184 10.035 10.035 0 0 1-3.184 2.139A9.801 9.801 0 0 1 10 20.25c-1.38 0-2.679-.26-3.896-.781A10.035 10.035 0 0 1 2.92 17.33 10.035 10.035 0 0 1 .78 14.146 9.801 9.801 0 0 1 0 10.25c0-1.38.26-2.679.781-3.896A10.035 10.035 0 0 1 2.92 3.17 10.035 10.035 0 0 1 6.104 1.03 9.801 9.801 0 0 1 10 .25zm0 18.77a8.44 8.44 0 0 0 3.408-.694 8.83 8.83 0 0 0 2.774-1.885 9.035 9.035 0 0 0 1.875-2.783 8.44 8.44 0 0 0 .693-3.408 8.44 8.44 0 0 0-.693-3.408 8.914 8.914 0 0 0-1.875-2.774 8.914 8.914 0 0 0-2.774-1.875A8.44 8.44 0 0 0 10 1.5a8.44 8.44 0 0 0-3.408.693 8.914 8.914 0 0 0-2.774 1.875 8.914 8.914 0 0 0-1.875 2.774 8.44 8.44 0 0 0-.693 3.408c0 1.21.231 2.347.693 3.408a9.035 9.035 0 0 0 1.875 2.783 8.83 8.83 0 0 0 2.774 1.885A8.44 8.44 0 0 0 10 19.02zm4.375-9.395a.6.6 0 0 1 .44.186.6.6 0 0 1 .185.439.6.6 0 0 1-.186.44.6.6 0 0 1-.439.185h-3.75v3.75a.6.6 0 0 1-.186.44.6.6 0 0 1-.439.185.6.6 0 0 1-.44-.186.6.6 0 0 1-.185-.439v-3.75h-3.75a.6.6 0 0 1-.44-.186A.6.6 0 0 1 5 10.25a.6.6 0 0 1 .186-.44.6.6 0 0 1 .439-.185h3.75v-3.75a.6.6 0 0 1 .186-.44A.6.6 0 0 1 10 5.25a.6.6 0 0 1 .44.186.6.6 0 0 1 .185.439v3.75h3.75z"/>
</svg>
