<svg xmlns="http://www.w3.org/2000/svg" width="89" height="83" viewBox="0 0 89 83">
    <g fill="none" fill-rule="evenodd" transform="translate(1 1)">
        <ellipse cx="43.495" cy="40.5" stroke="#9B9B9B" stroke-width="2" rx="43.191" ry="40.5"/>
        <path fill="#9B9B9B" d="M73.06 51.58a4.386 4.386 0 0 1 1.41 1.351c.368.556.552 1.179.552 1.869 0 .997-.379 1.86-1.135 2.588s-1.686 1.092-2.79 1.092-2.034-.364-2.79-1.092c-.756-.729-1.135-1.591-1.135-2.588 0-.69.184-1.313.552-1.869a4.386 4.386 0 0 1 1.41-1.351V38.7l-7.971 3.91c.082.115.133.24.153.374.02.134.031.258.031.373v15.986c0 .268-.061.527-.184.776s-.307.45-.552.603c-.204.192-1.543.786-4.016 1.783C54.12 63.502 49.778 64 43.564 64s-10.537-.527-12.97-1.581c-2.432-1.054-3.75-1.677-3.954-1.869a1.272 1.272 0 0 1-.522-.604 2.027 2.027 0 0 1-.153-.776V43.587c0-.153.02-.306.061-.46.041-.153.103-.287.184-.402l-12.877-6.44a1.787 1.787 0 0 1-.767-.661 1.725 1.725 0 0 1-.275-.949c0-.345.092-.661.275-.949.184-.287.42-.508.706-.661L42.644 18.23a1.98 1.98 0 0 1 .95-.23c.348 0 .665.077.951.23l29.557 14.777c.286.192.52.432.705.72.184.287.276.603.276.948 0 .307-.092.613-.276.92a1.73 1.73 0 0 1-.767.69l-.98.46V51.58zm-15.638 6.67V44.508L44.484 50.89a2.8 2.8 0 0 1-.46.172 1.771 1.771 0 0 1-.46.058c-.163 0-.327-.02-.49-.057a1.411 1.411 0 0 1-.43-.173L29.89 44.565v13.628c.695.345 2.115.785 4.261 1.322 2.147.537 5.284.805 9.413.805 4.129 0 7.277-.259 9.443-.776 2.167-.518 3.639-.949 4.415-1.294zM43.564 47.21l25.387-12.593L43.625 21.91 18.3 34.617 43.564 47.21z"/>
    </g>
</svg>
